<svg width="1024" height="1024" viewBox="0 0 1024 1024" fill="none" xmlns="http://www.w3.org/2000/svg">
  <defs>
    <linearGradient id="bg3" x1="132" y1="90" x2="900" y2="936" gradientUnits="userSpaceOnUse">
      <stop stop-color="#131A2E"/>
      <stop offset="0.48" stop-color="#0A1018"/>
      <stop offset="1" stop-color="#05070C"/>
    </linearGradient>
    <radialGradient id="aura3" cx="0" cy="0" r="1" gradientUnits="userSpaceOnUse" gradientTransform="translate(512 438) rotate(90) scale(338)">
      <stop stop-color="#8B95FF" stop-opacity="0.25"/>
      <stop offset="0.58" stop-color="#5EE6C5" stop-opacity="0.14"/>
      <stop offset="1" stop-color="#5EE6C5" stop-opacity="0"/>
    </radialGradient>
    <linearGradient id="ring3" x1="262" y1="272" x2="770" y2="712" gradientUnits="userSpaceOnUse">
      <stop stop-color="#8B95FF"/>
      <stop offset="1" stop-color="#5EE6C5"/>
    </linearGradient>
    <linearGradient id="trail3" x1="512" y1="578" x2="676" y2="826" gradientUnits="userSpaceOnUse">
      <stop stop-color="#7FE3DA"/>
      <stop offset="1" stop-color="#5EE6C5"/>
    </linearGradient>
    <filter id="glow3" x="176" y="172" width="672" height="724" filterUnits="userSpaceOnUse" color-interpolation-filters="sRGB">
      <feGaussianBlur stdDeviation="30"/>
    </filter>
  </defs>

  <rect x="64" y="64" width="896" height="896" rx="224" fill="url(#bg3)"/>
  <rect x="104" y="104" width="816" height="816" rx="196" stroke="#FFFFFF" stroke-opacity="0.06" stroke-width="2"/>
  <rect x="184" y="184" width="656" height="656" rx="160" fill="#0C121C" fill-opacity="0.9" stroke="#FFFFFF" stroke-opacity="0.05" stroke-width="2"/>

  <circle cx="512" cy="438" r="286" fill="url(#aura3)"/>

  <g filter="url(#glow3)">
    <circle cx="512" cy="438" r="206" stroke="url(#ring3)" stroke-width="68"/>
    <path d="M512 612V700C512 740 531 777 563 802L626 850" stroke="url(#trail3)" stroke-width="68" stroke-linecap="round" stroke-linejoin="round"/>
  </g>

  <circle cx="512" cy="438" r="190" stroke="url(#ring3)" stroke-width="52"/>
  <path d="M512 612V700C512 740 531 777 563 802L626 850" stroke="url(#trail3)" stroke-width="52" stroke-linecap="round" stroke-linejoin="round"/>

  <path d="M512 296L542 382L632 382L560 434L588 520L512 468L436 520L464 434L392 382L482 382L512 296Z" fill="#EEF2FF" fill-opacity="0.95"/>
  <circle cx="626" cy="850" r="34" fill="#5EE6C5"/>
  <circle cx="626" cy="850" r="12" fill="#F5FFFC"/>

  <path d="M310 708H436" stroke="#FFFFFF" stroke-opacity="0.06" stroke-width="12" stroke-linecap="round"/>
  <path d="M598 266H708" stroke="#FFFFFF" stroke-opacity="0.05" stroke-width="12" stroke-linecap="round"/>
</svg>
