<svg width="1024" height="1024" viewBox="0 0 1024 1024" fill="none" xmlns="http://www.w3.org/2000/svg">
  <defs>
    <linearGradient id="bg2" x1="138" y1="98" x2="894" y2="918" gradientUnits="userSpaceOnUse">
      <stop stop-color="#111827"/>
      <stop offset="0.55" stop-color="#0A0F18"/>
      <stop offset="1" stop-color="#05070C"/>
    </linearGradient>
    <linearGradient id="path2" x1="224" y1="284" x2="780" y2="746" gradientUnits="userSpaceOnUse">
      <stop stop-color="#8B95FF"/>
      <stop offset="0.48" stop-color="#6DD9E6"/>
      <stop offset="1" stop-color="#5EE6C5"/>
    </linearGradient>
    <filter id="glow2" x="116" y="174" width="788" height="676" filterUnits="userSpaceOnUse" color-interpolation-filters="sRGB">
      <feGaussianBlur stdDeviation="28"/>
    </filter>
  </defs>

  <rect x="64" y="64" width="896" height="896" rx="224" fill="url(#bg2)"/>
  <rect x="104" y="104" width="816" height="816" rx="196" stroke="#FFFFFF" stroke-opacity="0.06" stroke-width="2"/>

  <g opacity="0.95">
    <rect x="194" y="194" width="636" height="636" rx="156" fill="#0D131D" fill-opacity="0.92" stroke="#FFFFFF" stroke-opacity="0.05" stroke-width="2"/>
    <rect x="242" y="248" width="232" height="182" rx="40" fill="#141B28" stroke="#FFFFFF" stroke-opacity="0.04"/>
    <rect x="548" y="248" width="232" height="182" rx="40" fill="#141B28" stroke="#FFFFFF" stroke-opacity="0.04"/>
    <rect x="242" y="498" width="232" height="182" rx="40" fill="#141B28" stroke="#FFFFFF" stroke-opacity="0.04"/>
    <rect x="548" y="498" width="232" height="182" rx="40" fill="#141B28" stroke="#FFFFFF" stroke-opacity="0.04"/>
  </g>

  <g filter="url(#glow2)">
    <path d="M306 342H716" stroke="url(#path2)" stroke-width="74" stroke-linecap="round"/>
    <path d="M306 342V588H714" stroke="url(#path2)" stroke-width="74" stroke-linecap="round" stroke-linejoin="round"/>
    <path d="M716 342V588" stroke="url(#path2)" stroke-width="74" stroke-linecap="round"/>
  </g>

  <path d="M306 342H716" stroke="url(#path2)" stroke-width="60" stroke-linecap="round"/>
  <path d="M306 342V588H714" stroke="url(#path2)" stroke-width="60" stroke-linecap="round" stroke-linejoin="round"/>
  <path d="M716 342V588" stroke="url(#path2)" stroke-width="60" stroke-linecap="round"/>

  <circle cx="306" cy="342" r="34" fill="#8B95FF"/>
  <circle cx="716" cy="342" r="34" fill="#5EE6C5"/>
  <circle cx="306" cy="588" r="34" fill="#8B95FF"/>
  <circle cx="714" cy="588" r="34" fill="#5EE6C5"/>
  <circle cx="306" cy="342" r="12" fill="#EEF2FF"/>
  <circle cx="716" cy="342" r="12" fill="#F5FFFC"/>
  <circle cx="306" cy="588" r="12" fill="#EEF2FF"/>
  <circle cx="714" cy="588" r="12" fill="#F5FFFC"/>

  <path d="M286 756H450" stroke="#FFFFFF" stroke-opacity="0.06" stroke-width="12" stroke-linecap="round"/>
  <path d="M572 756H720" stroke="#FFFFFF" stroke-opacity="0.06" stroke-width="12" stroke-linecap="round"/>
</svg>
